<?xml version="1.0" standalone="no"?>
<!DOCTYPE svg PUBLIC "-//W3C//DTD SVG 20010904//EN"
 "http://www.w3.org/TR/2001/REC-SVG-20010904/DTD/svg10.dtd">
<svg version="1.0" xmlns="http://www.w3.org/2000/svg"
 width="500.000000pt" height="500.000000pt" viewBox="0 0 500.000000 500.000000"
 preserveAspectRatio="xMidYMid meet">
<metadata>
Created by potrace 1.11, written by Peter Selinger 2001-2013
</metadata>
<g transform="translate(0.000000,500.000000) scale(0.100000,-0.100000)"
fill="#000000" stroke="none">
<path d="M0 2500 l0 -2500 1894 0 c1506 0 1895 3 1899 13 4 10 6 10 6 0 1 -8
15 -13 35 -13 25 0 38 6 51 26 13 21 19 23 31 13 12 -10 13 -9 8 4 -7 20 43
77 68 77 10 0 17 6 15 13 -1 7 7 11 22 9 15 -2 21 0 16 7 -3 6 -11 9 -16 6 -5
-4 -9 1 -9 9 0 9 7 16 15 16 7 0 18 7 23 16 8 14 12 14 31 -7 23 -25 23 -46 0
-41 -8 2 -11 0 -6 -4 4 -4 -9 -25 -29 -46 -35 -34 -38 -36 -51 -20 -14 16 -14
16 -9 -1 3 -10 6 -28 6 -39 0 -18 3 -17 32 10 17 17 34 29 38 27 4 -3 10 5 13
16 3 12 10 18 17 14 6 -3 10 -3 9 2 -4 20 2 27 12 13 9 -12 10 -11 6 8 -4 16
-1 22 13 22 23 0 35 16 18 23 -10 4 -9 6 1 6 8 1 20 9 28 19 8 9 12 11 8 5 -3
-7 -1 -13 4 -13 6 0 11 5 11 10 0 7 7 7 21 -1 15 -8 19 -8 15 0 -4 6 -2 11 3
11 6 0 11 5 11 11 0 8 -4 9 -13 0 -14 -11 -27 -5 -27 11 0 5 5 6 10 3 6 -3 10
-2 10 4 0 18 48 61 68 61 4 0 13 13 20 30 8 16 20 30 28 30 9 0 12 5 8 11 -4
8 1 9 17 4 20 -7 22 -6 12 7 -10 11 -10 17 -1 26 15 15 32 16 23 2 -3 -5 -1
-18 5 -27 9 -14 10 -9 7 25 -4 33 -1 44 12 52 12 6 22 5 31 -3 10 -10 11 -7 5
11 -5 19 -2 23 26 29 28 5 30 7 14 14 -19 7 -19 8 2 8 12 1 24 7 26 14 4 9 8
8 17 -3 9 -13 10 -12 7 5 -2 11 -9 19 -16 17 -7 -1 -10 2 -6 8 3 5 13 10 21
10 8 0 14 4 14 9 0 13 103 121 115 121 6 0 16 9 23 20 14 23 37 27 28 5 -4
-11 1 -15 17 -15 15 0 18 -3 9 -8 -7 -5 -10 -16 -6 -25 11 -30 20 -18 20 25 0
23 -1 37 -4 30 -2 -7 -8 -12 -14 -12 -6 0 -8 7 -5 15 4 8 2 17 -4 20 -20 13 2
24 29 15 24 -9 25 -8 10 3 -16 13 -16 15 7 27 14 7 25 20 25 27 0 8 5 11 11 8
6 -4 13 2 15 12 3 10 14 20 26 20 26 2 36 12 21 21 -8 5 -9 13 -3 22 7 10 10
11 10 3 0 -7 7 -13 15 -13 12 0 13 4 6 18 -6 12 -5 23 4 35 10 15 14 15 18 3
8 -21 42 -13 42 10 -1 10 -6 18 -13 16 -17 -3 -27 25 -15 41 15 18 24 77 13
77 -6 0 -10 -8 -11 -17 0 -12 -2 -13 -6 -5 -6 15 16 44 28 36 5 -3 9 13 9 35
0 22 -5 42 -12 44 -10 4 -10 6 0 6 9 1 12 388 12 1901 l0 1900 -2500 0 -2500
0 0 -2500z m2742 1745 c503 -67 965 -359 1248 -790 113 -173 204 -396 251
-620 21 -98 24 -135 24 -345 -1 -206 -4 -248 -23 -339 -69 -316 -213 -607
-405 -820 l-40 -43 177 -177 176 -177 -40 -39 -40 -39 -175 174 -174 174 -33
-27 c-180 -147 -269 -205 -433 -283 -125 -59 -256 -103 -406 -136 -91 -20
-133 -22 -339 -23 -262 0 -349 12 -560 81 -483 158 -893 543 -1083 1019 -82
205 -116 368 -124 595 -9 234 16 407 87 623 70 209 192 426 332 588 l61 71
-177 177 -176 177 35 34 35 34 178 -176 177 -176 70 60 c253 217 588 364 925
407 105 14 337 12 452 -4z m2158 -3149 c-47 -47 -64 -54 -33 -13 15 21 57 53
72 56 3 1 -15 -19 -39 -43z m70 -52 c0 -8 -6 -13 -12 -11 -7 1 -13 -7 -13 -18
0 -11 -15 -35 -33 -54 -18 -19 -35 -45 -38 -58 l-6 -24 -24 22 c-28 26 -44 20
-18 -6 10 -10 18 -25 19 -35 1 -14 -7 -16 -57 -15 -34 1 -54 -2 -46 -6 7 -5
20 -6 30 -3 9 2 20 -1 24 -7 4 -7 3 -9 -3 -6 -5 4 -25 -8 -43 -26 -19 -18 -31
-27 -27 -21 4 7 0 14 -8 18 -24 9 -18 35 14 62 17 14 33 34 36 45 4 12 13 18
20 15 7 -2 16 2 19 10 3 8 17 14 31 14 16 0 25 6 25 16 0 13 3 14 14 4 12 -9
15 -8 13 9 -1 12 -5 21 -9 21 -4 0 -8 5 -8 11 0 7 7 8 18 4 9 -3 19 -7 22 -8
3 -1 6 3 8 8 1 6 -2 10 -8 10 -17 0 -12 16 12 39 24 23 48 18 48 -10z m-146
-25 c-9 -11 -20 -16 -23 -13 -3 4 0 9 7 11 6 3 12 11 12 19 0 9 5 12 11 9 7
-5 4 -14 -7 -26z m163 -52 c0 -8 -6 -14 -14 -14 -9 0 -10 4 -2 14 6 7 12 13
14 13 1 0 2 -6 2 -13z m-361 -143 c-9 -9 -19 -14 -22 -11 -3 2 3 12 12 21 9 9
19 15 21 12 3 -3 -2 -13 -11 -22z m78 -74 c-3 -2 -9 2 -13 9 -7 11 -10 11 -17
-1 -5 -8 -16 -18 -24 -22 -8 -3 -2 -4 13 -1 19 4 26 2 22 -5 -3 -5 -13 -10
-21 -10 -8 0 -13 -4 -10 -9 10 -15 -30 -42 -50 -34 -16 6 -17 4 -7 -8 10 -13
7 -21 -20 -47 -18 -18 -36 -29 -40 -26 -4 4 -7 2 -7 -5 0 -16 -70 -91 -85 -91
-7 0 -15 -9 -18 -20 -4 -16 -11 -19 -39 -16 -26 4 -37 0 -47 -16 -7 -11 -8
-17 -2 -13 6 3 11 0 12 -7 0 -10 2 -10 6 0 2 6 12 12 20 12 14 0 14 -3 -2 -20
-10 -11 -22 -17 -26 -14 -5 3 -9 0 -9 -7 0 -17 -192 -209 -202 -203 -4 3 -8
-3 -9 -13 0 -11 -3 -13 -6 -5 -2 6 -10 9 -16 5 -6 -4 -8 0 -4 10 4 11 1 17 -7
17 -19 0 2 46 24 54 8 4 21 9 28 12 7 3 12 -1 12 -10 0 -9 7 -16 15 -16 18 0
20 16 3 24 -7 3 1 4 17 1 17 -3 25 -2 19 2 -16 11 -28 53 -15 53 6 0 14 -12
17 -26 5 -18 10 -22 17 -15 7 7 5 17 -7 30 -20 22 -15 51 9 51 8 0 15 4 15 8
0 11 61 32 73 25 6 -4 6 1 0 12 -13 22 -5 55 12 55 7 0 16 6 19 13 5 9 7 9 12
0 3 -7 11 -13 17 -13 8 0 7 4 -1 12 -18 18 -14 38 8 38 11 0 20 7 20 15 0 18
54 69 58 55 2 -6 8 -8 13 -4 5 3 9 -2 9 -11 0 -9 4 -13 10 -10 6 4 4 15 -5 29
-14 21 -13 25 10 50 21 22 31 27 52 21 23 -5 25 -4 14 9 -11 13 -4 25 50 77
l63 62 12 -29 c7 -16 10 -31 8 -34z m-130 21 c-22 -21 -27 -21 -18 3 3 9 13
16 22 16 13 0 12 -3 -4 -19z m-54 -41 c0 -5 -5 -10 -11 -10 -5 0 -7 5 -4 10 3
6 8 10 11 10 2 0 4 -4 4 -10z m-13 -26 c-3 -3 -12 -4 -19 -1 -8 3 -5 6 6 6 11
1 17 -2 13 -5z m-27 -23 c0 -12 -20 -25 -27 -18 -7 7 6 27 18 27 5 0 9 -4 9
-9z m-35 -30 c3 -5 1 -12 -5 -16 -5 -3 -10 1 -10 9 0 18 6 21 15 7z m-109
-117 c-48 -48 -90 -84 -93 -81 -8 8 7 28 17 22 4 -3 15 6 24 19 26 41 117 126
134 126 3 0 -34 -39 -82 -86z m-106 -103 c0 -5 -7 -14 -15 -21 -12 -10 -15
-10 -15 2 0 8 3 18 7 21 9 10 23 9 23 -2z m70 -5 c0 -2 -8 -10 -17 -17 -16
-13 -17 -12 -4 4 13 16 21 21 21 13z m-110 -26 c0 -11 -7 -20 -15 -20 -13 0
-13 3 -3 20 7 11 14 20 15 20 2 0 3 -9 3 -20z m0 -94 c0 -3 -4 -8 -10 -11 -5
-3 -10 -1 -10 4 0 6 5 11 10 11 6 0 10 -2 10 -4z m-150 -50 c0 -3 -4 -8 -10
-11 -5 -3 -10 -1 -10 4 0 6 5 11 10 11 6 0 10 -2 10 -4z m-200 -206 c0 -5 -5
-10 -11 -10 -5 0 -7 5 -4 10 3 6 8 10 11 10 2 0 4 -4 4 -10z"/>
<path d="M2375 4153 c-521 -45 -989 -325 -1269 -760 -276 -429 -338 -961 -169
-1446 87 -250 221 -457 424 -652 400 -384 964 -541 1507 -419 317 71 572 213
808 448 291 292 449 632 484 1047 15 177 0 343 -47 534 -68 273 -208 526 -407
733 -151 156 -285 256 -474 351 -247 124 -580 188 -857 164z"/>
<path d="M4797 875 c-4 -8 -2 -17 3 -20 6 -4 10 3 10 14 0 25 -6 27 -13 6z"/>
<path d="M4646 763 c-6 -14 -5 -15 5 -6 7 7 10 15 7 18 -3 3 -9 -2 -12 -12z"/>
<path d="M4518 613 c7 -3 16 -2 19 1 4 3 -2 6 -13 5 -11 0 -14 -3 -6 -6z"/>
<path d="M4440 560 c0 -5 7 -10 15 -10 8 0 15 5 15 10 0 6 -7 10 -15 10 -8 0
-15 -4 -15 -10z"/>
<path d="M4450 530 c0 -5 5 -10 11 -10 5 0 7 5 4 10 -3 6 -8 10 -11 10 -2 0
-4 -4 -4 -10z"/>
<path d="M4238 333 c7 -3 16 -2 19 1 4 3 -2 6 -13 5 -11 0 -14 -3 -6 -6z"/>
<path d="M4130 230 c0 -5 7 -10 15 -10 8 0 15 5 15 10 0 6 -7 10 -15 10 -8 0
-15 -4 -15 -10z"/>
<path d="M4920 880 c0 -5 5 -10 10 -10 6 0 10 5 10 10 0 6 -4 10 -10 10 -5 0
-10 -4 -10 -10z"/>
<path d="M4991 873 c0 -6 -4 -20 -7 -30 -5 -14 -4 -15 5 -7 7 7 11 20 8 30 -3
11 -5 14 -6 7z"/>
<path d="M4935 850 c3 -5 8 -10 11 -10 2 0 4 5 4 10 0 6 -5 10 -11 10 -5 0 -7
-4 -4 -10z"/>
<path d="M4840 802 c0 -12 25 -33 36 -31 21 3 28 -2 14 -11 -9 -6 -10 -10 -3
-10 21 0 26 22 7 34 -10 6 -21 11 -24 11 -3 0 -11 4 -17 8 -7 5 -13 4 -13 -1z"/>
<path d="M4944 794 c9 -8 16 -20 16 -25 0 -13 -18 -11 -22 3 -3 7 -7 6 -11 -5
-5 -14 -1 -17 24 -15 17 1 33 7 36 12 3 5 1 6 -5 2 -7 -4 -12 -1 -12 8 0 8 3
16 8 19 4 2 1 2 -5 1 -7 -2 -13 1 -13 6 0 6 -7 10 -16 10 -14 0 -14 -1 0 -16z"/>
<path d="M4840 760 c0 -6 -7 -10 -15 -10 -9 0 -12 -6 -8 -16 5 -15 8 -15 17
-2 6 8 18 17 25 20 12 3 12 6 -2 11 -9 3 -17 2 -17 -3z"/>
<path d="M4985 739 c-4 -6 -5 -12 -2 -15 2 -3 7 2 10 11 7 17 1 20 -8 4z"/>
<path d="M4956 727 c3 -10 9 -15 12 -12 3 3 0 11 -7 18 -10 9 -11 8 -5 -6z"/>
<path d="M4827 709 c-14 -15 -15 -23 -7 -37 11 -16 11 -16 6 1 -7 24 3 22 12
-3 5 -14 11 -17 22 -9 13 8 13 11 -2 20 -26 15 -22 27 7 21 14 -2 25 0 25 6 0
6 12 9 28 6 20 -3 23 -2 12 6 -21 14 -47 12 -54 -2 -5 -10 -7 -10 -12 0 -8 16
-15 14 -37 -9z"/>
<path d="M4928 694 c-4 -3 -14 -7 -25 -8 -10 -2 -19 -11 -20 -22 -3 -18 -3
-18 5 0 6 14 11 16 16 8 4 -7 4 -18 0 -24 -5 -10 -3 -10 7 0 8 7 14 18 14 25
1 7 6 11 13 10 7 -2 12 2 12 7 0 11 -13 13 -22 4z"/>
<path d="M4670 676 c0 -2 6 -9 14 -15 10 -9 15 -8 20 4 4 10 -1 15 -14 15 -11
0 -20 -2 -20 -4z"/>
<path d="M4661 636 c-1 -12 -6 -16 -17 -12 -8 3 -12 2 -9 -4 3 -6 12 -10 20
-10 8 0 18 -6 22 -14 7 -12 10 -12 21 0 10 11 10 14 -1 14 -8 0 -19 10 -25 23
-9 19 -11 19 -11 3z"/>
<path d="M4945 641 c-3 -5 -1 -12 5 -16 5 -3 10 1 10 9 0 18 -6 21 -15 7z"/>
<path d="M4711 637 c-1 -5 4 -17 9 -28 9 -15 7 -21 -5 -25 -19 -8 -20 -21 0
-21 8 0 25 11 37 24 18 19 19 25 8 36 -10 10 -12 9 -7 -5 9 -27 -18 -22 -31 5
-6 12 -11 18 -11 14z"/>
<path d="M4832 617 c3 -24 21 -27 26 -4 2 8 -4 17 -13 21 -13 4 -16 1 -13 -17z"/>
<path d="M4921 614 c0 -11 3 -14 6 -6 3 7 2 16 -1 19 -3 4 -6 -2 -5 -13z"/>
<path d="M4790 610 c-13 -8 -12 -10 3 -10 9 0 17 5 17 10 0 12 -1 12 -20 0z"/>
<path d="M4954 593 c-15 -16 -19 -37 -5 -29 5 3 12 -1 15 -10 9 -23 34 -1 34
30 0 26 -22 30 -44 9z"/>
<path d="M4806 575 c4 -8 10 -12 15 -9 11 6 2 24 -11 24 -5 0 -7 -7 -4 -15z"/>
<path d="M4625 570 c-3 -5 -2 -10 4 -10 5 0 13 5 16 10 3 6 2 10 -4 10 -5 0
-13 -4 -16 -10z"/>
<path d="M4765 559 c-4 -5 -19 -15 -33 -20 -26 -10 -26 -11 -8 -25 25 -18 37
-18 30 1 -4 8 1 17 9 21 17 6 31 34 17 34 -5 0 -12 -5 -15 -11z"/>
<path d="M4854 555 c-10 -8 -14 -14 -9 -14 6 0 19 6 29 14 11 8 15 15 10 15
-6 0 -19 -7 -30 -15z"/>
<path d="M4920 549 c0 -5 5 -9 10 -9 6 0 10 -7 10 -16 0 -14 -2 -14 -16 -3
-14 11 -19 10 -35 -10 -11 -13 -19 -20 -19 -16 0 4 -7 2 -15 -5 -8 -7 -15 -24
-15 -37 0 -22 -2 -24 -15 -13 -12 10 -15 10 -15 -4 0 -9 -6 -15 -12 -14 -7 2
-13 -3 -12 -9 1 -7 2 -22 3 -32 0 -11 9 -22 19 -24 16 -4 16 -5 -1 -6 -10 0
-15 -5 -12 -11 3 -5 0 -10 -8 -10 -8 0 -21 -8 -30 -18 -18 -20 -23 -37 -8 -28
5 4 7 -4 4 -16 l-4 -23 13 23 c8 12 17 19 21 16 4 -4 7 -2 7 4 0 5 -6 13 -12
16 -8 3 -7 5 2 3 16 -2 67 43 63 56 -2 4 4 7 12 7 8 0 27 14 42 32 16 17 41
43 56 57 17 15 26 32 24 42 -3 13 0 16 11 12 10 -4 13 -2 8 5 -10 16 -38 15
-34 -1 3 -14 -47 -70 -72 -80 -11 -4 -10 -6 5 -7 13 -1 7 -6 -19 -16 -22 -8
-41 -12 -44 -9 -3 2 3 7 12 11 9 3 16 12 16 20 0 8 5 14 10 14 14 0 90 75 90
88 0 5 -9 12 -20 15 -11 3 -20 1 -20 -4z m-40 -79 c0 -5 -4 -10 -10 -10 -5 0
-10 5 -10 10 0 6 5 10 10 10 6 0 10 -4 10 -10z"/>
<path d="M4686 525 c-3 -8 -12 -15 -21 -15 -8 0 -15 -6 -15 -14 0 -8 -3 -21
-6 -30 -3 -9 -1 -16 5 -16 6 0 11 9 11 20 0 11 5 20 10 20 6 0 9 -14 8 -31 -2
-23 -6 -29 -20 -26 -21 6 -25 -8 -5 -16 19 -7 41 8 33 22 -4 6 0 11 11 11 11
0 14 3 7 8 -15 9 -28 52 -17 52 5 0 14 -5 21 -12 16 -16 15 3 -2 25 -12 15
-14 16 -20 2z"/>
<path d="M4638 523 c7 -3 16 -2 19 1 4 3 -2 6 -13 5 -11 0 -14 -3 -6 -6z"/>
<path d="M4838 523 c7 -3 16 -2 19 1 4 3 -2 6 -13 5 -11 0 -14 -3 -6 -6z"/>
<path d="M4800 505 c0 -7 -6 -18 -13 -22 -7 -4 -23 -21 -35 -37 -12 -16 -22
-25 -22 -20 0 10 -29 -28 -30 -40 0 -5 12 3 26 18 15 14 31 26 36 26 5 0 7 4
4 9 -3 4 6 13 19 19 17 8 25 20 25 37 0 14 -2 25 -5 25 -3 0 -5 -7 -5 -15z"/>
<path d="M4556 463 c-6 -14 -5 -15 5 -6 7 7 10 15 7 18 -3 3 -9 -2 -12 -12z"/>
<path d="M4515 440 c-3 -5 -2 -10 4 -10 5 0 13 5 16 10 3 6 2 10 -4 10 -5 0
-13 -4 -16 -10z"/>
<path d="M4983 435 c0 -8 4 -15 9 -15 4 0 8 7 8 15 0 8 -4 15 -8 15 -5 0 -9
-7 -9 -15z"/>
<path d="M4560 430 c0 -5 5 -10 10 -10 15 0 11 -52 -5 -74 -19 -25 -30 -14
-15 14 11 20 10 21 -9 10 -15 -7 -27 -8 -41 0 -16 9 -18 8 -14 -5 3 -8 10 -13
14 -10 15 9 41 -26 35 -49 -2 -11 -2 -15 1 -8 3 6 10 10 15 6 5 -3 9 2 9 10 0
9 5 16 11 16 5 0 7 5 4 10 -3 6 -1 10 4 10 6 0 11 20 11 45 0 33 -4 45 -15 45
-8 0 -15 -4 -15 -10z"/>
<path d="M4451 400 c0 -29 1 -32 10 -17 7 11 7 23 0 35 -9 14 -10 11 -10 -18z"/>
<path d="M4602 400 c0 -14 2 -19 5 -12 2 6 2 18 0 25 -3 6 -5 1 -5 -13z"/>
<path d="M4730 358 c-16 -22 -30 -45 -30 -51 0 -5 -9 -7 -20 -4 -23 6 -24 3
-10 -24 7 -13 7 -19 0 -19 -5 0 -10 -5 -10 -10 0 -7 7 -7 20 0 11 6 18 15 15
21 -4 5 -1 9 5 9 23 0 80 67 80 94 0 37 -15 32 -50 -16z m30 -2 c0 -3 -4 -8
-10 -11 -5 -3 -10 -1 -10 4 0 6 5 11 10 11 6 0 10 -2 10 -4z"/>
<path d="M4675 359 c-11 -16 -1 -19 13 -3 7 8 8 14 3 14 -5 0 -13 -5 -16 -11z"/>
<path d="M4460 333 c0 -10 6 -12 21 -8 14 5 25 2 31 -6 7 -11 8 -9 6 5 -4 24
-58 32 -58 9z"/>
<path d="M4622 334 c-17 -19 -15 -34 6 -34 14 0 15 2 2 10 -13 8 -13 10 2 10
21 0 32 16 15 23 -6 2 -18 -2 -25 -9z"/>
<path d="M4970 329 c0 -5 4 -8 9 -4 5 3 12 -3 14 -12 4 -14 5 -13 6 5 1 13 -5
22 -14 22 -8 0 -15 -5 -15 -11z"/>
<path d="M4876 305 c-11 -8 -15 -15 -9 -15 6 0 16 7 23 15 16 19 11 19 -14 0z"/>
<path d="M4958 298 c23 -11 30 -28 12 -28 -5 0 -10 5 -10 10 0 13 -47 13 -55
1 -3 -6 3 -8 13 -6 10 1 27 -2 39 -8 15 -9 18 -17 12 -32 -8 -19 -8 -19 -15 3
-7 25 -24 30 -24 7 0 -14 -11 -19 -37 -16 -8 1 -10 -5 -7 -14 4 -11 2 -14 -9
-9 -8 3 -18 1 -22 -5 -3 -6 0 -8 9 -5 8 3 16 -2 19 -13 4 -16 6 -16 12 4 7 20
33 39 42 29 8 -8 -17 -45 -37 -56 -11 -6 -20 -16 -20 -21 0 -6 16 3 35 20 20
17 39 31 43 31 9 0 42 64 42 81 0 16 -22 34 -45 36 -18 2 -18 1 3 -9z"/>
<path d="M4474 288 c-5 -8 -3 -9 33 -13 14 -1 20 2 16 11 -5 13 -41 15 -49 2z"/>
<path d="M4314 278 c-3 -4 4 -8 15 -8 11 0 22 4 25 8 2 4 -4 8 -15 8 -11 0
-23 -4 -25 -8z"/>
<path d="M4448 265 c2 -14 8 -22 13 -19 5 3 5 14 -1 25 -14 26 -18 24 -12 -6z"/>
<path d="M4560 265 c0 -8 4 -15 9 -15 5 0 11 7 15 15 3 9 0 15 -9 15 -8 0 -15
-7 -15 -15z"/>
<path d="M4373 255 c0 -8 6 -15 12 -15 6 0 12 7 12 15 0 8 -6 15 -12 15 -6 0
-12 -7 -12 -15z"/>
<path d="M4430 225 c0 -27 3 -46 6 -42 3 3 6 22 6 42 0 20 -3 39 -6 42 -3 4
-6 -15 -6 -42z"/>
<path d="M4723 255 c-8 -9 -9 -16 -3 -20 6 -3 13 1 16 10 9 21 2 26 -13 10z"/>
<path d="M4300 251 c0 -17 18 -21 24 -6 3 9 0 15 -9 15 -8 0 -15 -4 -15 -9z"/>
<path d="M4626 252 c-2 -4 -1 -14 3 -21 6 -9 10 -7 14 8 5 20 -7 29 -17 13z"/>
<path d="M4890 250 c0 -5 5 -10 10 -10 6 0 10 5 10 10 0 6 -4 10 -10 10 -5 0
-10 -4 -10 -10z"/>
<path d="M4573 215 c-27 -28 -29 -37 -8 -29 8 4 15 1 15 -5 0 -6 -7 -11 -16
-11 -8 0 -12 -4 -9 -10 3 -5 -1 -10 -10 -10 -9 0 -13 5 -10 10 12 19 -7 10
-25 -12 -14 -18 -16 -26 -7 -37 9 -11 9 -15 0 -18 -7 -3 -13 -9 -13 -15 0 -6
9 -3 20 7 11 10 20 13 20 8 0 -22 39 -20 61 3 12 13 25 21 29 19 4 -2 5 8 2
22 l-5 27 -15 -22 c-8 -12 -20 -22 -27 -22 -7 0 -16 -7 -19 -16 -3 -8 -10 -12
-16 -9 -6 4 -8 11 -5 16 3 5 -1 6 -10 3 -11 -5 -14 -2 -9 10 4 10 13 14 24 11
11 -3 24 4 36 20 10 14 25 25 32 25 16 0 13 52 -3 56 -5 2 -20 -8 -32 -21z
m37 -5 c0 -5 -5 -10 -11 -10 -5 0 -7 5 -4 10 3 6 8 10 11 10 2 0 4 -4 4 -10z"/>
<path d="M4681 222 c-6 -12 -19 -22 -29 -22 -15 0 -15 -2 -2 -10 19 -12 33
-13 25 -1 -3 5 3 11 13 13 14 2 17 8 12 23 -7 19 -7 19 -19 -3z"/>
<path d="M4301 190 c0 -8 4 -24 9 -35 8 -18 9 -18 9 -2 1 10 5 16 10 12 5 -3
12 -1 15 4 4 5 2 12 -3 15 -5 4 -13 1 -17 -6 -5 -8 -10 -6 -15 8 -5 12 -8 14
-8 4z"/>
<path d="M4790 181 c-5 -11 -10 -29 -10 -40 0 -12 -6 -21 -14 -21 -8 0 -17 -6
-19 -12 -4 -10 -6 -10 -6 0 -1 19 -17 14 -18 -5 -1 -10 -4 -29 -9 -42 -6 -19
-4 -22 7 -16 12 7 12 6 1 -6 -11 -12 -15 -11 -26 3 -19 25 -23 23 -23 -14 0
-18 2 -27 5 -20 3 10 7 10 19 1 11 -10 16 -10 23 0 6 11 8 11 12 0 4 -12 8
-12 22 0 11 9 20 11 24 5 9 -12 62 -12 81 0 10 6 12 6 7 -2 -11 -18 15 -14 38
5 20 17 20 17 7 0 -12 -16 -10 -17 38 -17 l51 0 0 51 c0 44 -2 50 -15 39 -8
-7 -22 -10 -30 -6 -8 3 -15 1 -15 -4 0 -6 -5 -10 -11 -10 -8 0 -7 5 1 15 7 9
21 13 30 10 9 -3 23 2 30 11 12 13 11 17 -1 25 -10 6 -10 9 -1 9 7 0 12 13 12
30 0 36 -4 37 -34 5 -13 -13 -26 -22 -29 -18 -4 3 -7 -1 -7 -10 0 -9 -5 -19
-12 -23 -7 -5 -8 -3 -3 7 8 12 6 12 -8 1 -17 -15 -38 -8 -36 11 3 24 -1 37
-12 37 -6 0 -9 -6 -6 -14 3 -8 0 -17 -7 -19 -10 -4 -12 1 -8 15 3 11 -1 24 -9
29 -21 13 -27 11 -39 -10z m40 -10 c0 -3 -5 -13 -10 -21 -8 -12 -10 -12 -11 5
l0 20 -9 -20 c-10 -22 -13 -5 -4 19 5 14 34 12 34 -3z m160 -15 c0 -2 -7 -7
-16 -10 -8 -3 -12 -2 -9 4 6 10 25 14 25 6z m-158 -56 c-32 -30 -41 -50 -22
-50 6 0 10 7 10 15 0 8 4 15 10 15 5 0 18 9 29 21 18 20 20 20 31 2 8 -13 13
-14 16 -5 3 6 10 12 16 12 6 0 3 -9 -7 -20 -17 -19 -19 -19 -31 -2 -13 16 -13
16 -15 -3 -1 -11 -1 -27 0 -35 0 -10 -1 -11 -5 -2 -3 6 -13 12 -21 12 -9 0
-14 -3 -10 -6 9 -10 -25 -43 -39 -37 -8 3 -11 9 -8 14 8 13 -10 11 -24 -3 -14
-14 -17 -11 -26 25 -4 16 -2 27 4 27 5 0 10 -7 10 -16 0 -15 2 -15 23 -1 12 8
22 25 22 38 0 18 6 24 22 24 12 0 25 3 29 8 4 4 10 5 12 2 3 -3 -9 -18 -26
-35z"/>
<path d="M4360 180 c0 -5 11 -10 25 -10 14 0 25 5 25 10 0 6 -11 10 -25 10
-14 0 -25 -4 -25 -10z"/>
<path d="M4460 174 c0 -8 -8 -14 -17 -15 -10 0 -13 -3 -7 -5 6 -3 23 2 38 9
25 13 25 15 6 20 -13 3 -20 0 -20 -9z"/>
<path d="M4272 160 c0 -14 2 -19 5 -12 2 6 2 18 0 25 -3 6 -5 1 -5 -13z"/>
<path d="M4636 164 c-9 -24 -7 -28 9 -14 17 14 20 30 6 30 -5 0 -12 -7 -15
-16z"/>
<path d="M4251 148 c-3 -17 22 -108 29 -108 5 0 5 14 0 31 -5 18 -7 36 -4 40
3 5 1 9 -5 9 -5 0 -12 8 -14 18 -3 9 -5 14 -6 10z"/>
<path d="M4350 140 c0 -5 7 -10 15 -10 8 0 15 5 15 10 0 6 -7 10 -15 10 -8 0
-15 -4 -15 -10z"/>
<path d="M4293 100 c0 -25 2 -35 4 -22 2 12 2 32 0 45 -2 12 -4 2 -4 -23z"/>
<path d="M4385 110 c-3 -5 -1 -10 5 -10 6 0 8 -4 5 -10 -3 -6 1 -7 10 -4 12 5
13 9 4 20 -14 17 -16 17 -24 4z"/>
<path d="M4313 76 c-1 -17 2 -24 5 -16 3 8 8 17 12 20 4 3 2 10 -5 16 -9 9
-12 5 -12 -20z"/>
<path d="M4189 85 c-1 -5 -1 -13 0 -17 0 -5 -6 -8 -14 -8 -8 0 -15 -7 -15 -17
0 -15 1 -15 18 0 20 19 37 23 27 7 -3 -5 1 -10 10 -10 9 0 13 5 10 10 -3 6 -1
10 4 10 6 0 11 8 11 17 0 15 -1 15 -14 -2 -13 -18 -13 -18 -24 1 -6 10 -12 15
-13 9z"/>
<path d="M4447 69 c-10 -11 -15 -23 -13 -28 3 -4 -7 -7 -22 -5 -15 2 -19 1 -9
-2 27 -9 20 -25 -8 -18 -14 3 -25 2 -25 -3 0 -5 12 -10 27 -11 28 -2 66 24 57
39 -3 5 2 9 10 9 9 0 16 -6 16 -14 0 -24 18 -28 45 -9 32 24 31 32 -4 27 -23
-4 -31 -1 -36 16 -8 24 -15 24 -38 -1z"/>
<path d="M4354 66 c-18 -14 -18 -15 4 -13 12 1 22 7 22 14 0 16 -2 16 -26 -1z"/>
<path d="M4646 37 c3 -10 9 -15 12 -12 3 3 0 11 -7 18 -10 9 -11 8 -5 -6z"/>
<path d="M3945 30 c-3 -6 -3 -15 0 -20 7 -12 92 -13 99 -2 3 5 -15 8 -39 7
-43 -1 -59 8 -32 18 7 3 6 6 -5 6 -9 1 -20 -3 -23 -9z"/>
<path d="M4176 24 c-3 -9 -6 -16 -6 -17 0 -1 17 -2 37 -2 30 0 38 4 40 20 2
11 0 14 -3 8 -7 -15 -44 -17 -44 -3 0 16 -17 12 -24 -6z"/>
<path d="M4111 14 c0 -11 3 -14 6 -6 3 7 2 16 -1 19 -3 4 -6 -2 -5 -13z"/>
</g>
</svg>
